HIERARCHY
ROOT Hips
{
	OFFSET 0.000000 0.000000 0.000000
	CHANNELS 6 Xposition Yposition Zposition Xrotation Yrotation Zrotation
	JOINT LeftUpLeg_virtual
	{
		OFFSET 0.000000 0.000000 0.000000
		CHANNELS 3 Xrotation Yrotation Zrotation
		JOINT LeftUpLeg
		{
			OFFSET 10.205400 -3.823500 0.155100
			CHANNELS 3 Xrotation Yrotation Zrotation
			JOINT LeftLeg
			{
				OFFSET 0.708757 -12.982077 0.567790
				CHANNELS 3 Xrotation Yrotation Zrotation
				JOINT LeftFoot
				{
					OFFSET -0.708756 -10.717838 -2.184338
					CHANNELS 3 Xrotation Yrotation Zrotation
					JOINT LeftToeBase
					{
						OFFSET 0.108149 -7.191104 7.560241
						CHANNELS 3 Xrotation Yrotation Zrotation
						JOINT LeftToe_End
						{
							OFFSET 0.070230 0.081724 4.490308
							CHANNELS 3 Xrotation Yrotation Zrotation
							End Site
							{
								OFFSET 0 0 0
							}
						}
					}
				}
			}
		}
	}
	JOINT RightUpLeg_virtual
	{
		OFFSET 0.000000 0.000000 0.000000
		CHANNELS 3 Xrotation Yrotation Zrotation
		JOINT RightUpLeg
		{
			OFFSET -10.205400 -3.823500 0.005500
			CHANNELS 3 Xrotation Yrotation Zrotation
			JOINT RightLeg
			{
				OFFSET -0.708756 -12.982134 0.610632
				CHANNELS 3 Xrotation Yrotation Zrotation
				JOINT RightFoot
				{
					OFFSET 0.708754 -10.717769 -1.945823
					CHANNELS 3 Xrotation Yrotation Zrotation
					JOINT RightToeBase
					{
						OFFSET -0.108140 -7.191069 7.372968
						CHANNELS 3 Xrotation Yrotation Zrotation
						JOINT RightToe_End
						{
							OFFSET -0.070227 0.081735 4.479403
							CHANNELS 3 Xrotation Yrotation Zrotation
							End Site
							{
								OFFSET 0 0 0
							}
						}
					}
				}
			}
		}
	}
	JOINT Spine_virtual
	{
		OFFSET 0.000000 0.000000 0.000000
		CHANNELS 3 Xrotation Yrotation Zrotation
		JOINT Spine
		{
			OFFSET 0.000000 6.876099 0.125700
			CHANNELS 3 Xrotation Yrotation Zrotation
			JOINT Spine1
			{
				OFFSET 0.000000 5.730043 0.104720
				CHANNELS 3 Xrotation Yrotation Zrotation
				JOINT Spine1_split
				{
					OFFSET 0.000000 5.730043 0.104720
					CHANNELS 3 Xrotation Yrotation Zrotation
					JOINT Spine2
					{
						OFFSET 0.000000 5.730043 0.104720
						CHANNELS 3 Xrotation Yrotation Zrotation
						JOINT Neck_virtual
						{
							OFFSET 0.000000 0.000000 0.000000
							CHANNELS 3 Xrotation Yrotation Zrotation
							JOINT Neck
							{
								OFFSET 0.000000 10.314075 0.188496
								CHANNELS 3 Xrotation Yrotation Zrotation
								JOINT Head
								{
									OFFSET 0.000000 7.643700 -2.377400
									CHANNELS 3 Xrotation Yrotation Zrotation
									JOINT HeadTop_End
									{
										OFFSET 0.000000 43.788605 -13.619600
										CHANNELS 3 Xrotation Yrotation Zrotation
										End Site
										{
											OFFSET 0 0 0
										}
									}
								}
							}
						}
						JOINT LeftShoulder_virtual
						{
							OFFSET 0.000000 0.000000 0.000000
							CHANNELS 3 Xrotation Yrotation Zrotation
							JOINT LeftShoulder
							{
								OFFSET 2.196100 4.412489 0.087492
								CHANNELS 3 Xrotation Yrotation Zrotation
								JOINT LeftShoulder_split
								{
									OFFSET 2.196100 4.412489 0.087492
									CHANNELS 3 Xrotation Yrotation Zrotation
									JOINT LeftArm
									{
										OFFSET 8.771219 -2.981674 -0.026999
										CHANNELS 3 Xrotation Yrotation Zrotation
										JOINT LeftForeArm
										{
											OFFSET 8.512804 0.000000 -0.000000
											CHANNELS 3 Xrotation Yrotation Zrotation
											JOINT LeftHand
											{
												OFFSET 18.484802 0.000000 -0.000000
												CHANNELS 3 Xrotation Yrotation Zrotation
												End Site
												{
													OFFSET 0 0 0
												}
											}
										}
									}
								}
							}
						}
						JOINT RightShoulder_virtual
						{
							OFFSET 0.000000 0.000000 0.000000
							CHANNELS 3 Xrotation Yrotation Zrotation
							JOINT RightShoulder
							{
								OFFSET -2.196100 4.412496 0.070690
								CHANNELS 3 Xrotation Yrotation Zrotation
								JOINT RightShoulder_split
								{
									OFFSET -2.196100 4.412496 0.070690
									CHANNELS 3 Xrotation Yrotation Zrotation
									JOINT RightArm
									{
										OFFSET -8.771282 -2.981682 -0.094208
										CHANNELS 3 Xrotation Yrotation Zrotation
										JOINT RightForeArm
										{
											OFFSET -8.494598 0.000000 0.000000
											CHANNELS 3 Xrotation Yrotation Zrotation
											JOINT RightHand
											{
												OFFSET -18.483803 0.000000 0.000001
												CHANNELS 3 Xrotation Yrotation Zrotation
												End Site
												{
													OFFSET 0 0 0
												}
											}
										}
									}
								}
							}
						}
					}
				}
			}
		}
	}
}
MOTION
Frames: 4
Frame Time: 0.03333333
1.302954 32.329445 1.001631 0.000000 0.000000 0.000000 -0.721960 13.658964 7.267687 -23.881029 -3.116094 -3.023346 25.922754 1.619955 -5.783189 -1.178010 11.352105 -0.246394 -1.946184 0.122029 -0.789685 0.000000 0.000000 0.000000 -0.721960 13.658964 7.267687 19.811543 -11.038898 -9.236403 22.995022 -17.513636 1.884239 -21.546655 -37.946632 23.709967 -6.091109 -0.016837 -0.206676 0.000000 0.000000 0.000000 -0.721960 13.658964 7.267687 1.397024 6.506054 10.434926 9.627459 6.013830 1.213984 0.000000 0.000000 0.000000 0.000000 0.000000 0.000000 -0.200650 5.907543 1.227142 -11.589373 -16.052717 -0.377553 3.206328 -15.129211 -3.210454 0.000000 0.000000 0.000000 -0.200650 5.907543 1.227142 1.099653 5.973053 22.519103 0.000000 0.000000 0.000000 -58.734170 3.701348 -30.815717 -31.082627 -20.347233 12.092533 0.000000 0.000000 0.000000 -0.200650 5.907543 1.227142 5.662562 9.164069 5.261981 0.000000 0.000000 0.000000 20.859690 -63.359280 58.540745 0.367564 19.672608 37.179465 0.000000 0.000000 0.000000 
1.151963 31.893841 0.947372 0.000000 0.000000 0.000000 0.441616 23.637178 5.924834 -32.604321 -8.179771 -5.191419 28.464689 -0.277015 -6.192165 2.809618 9.447589 -0.107052 -1.888334 0.117172 -0.774282 0.000000 0.000000 0.000000 0.441616 23.637178 5.924834 27.264095 -18.779177 -2.607977 12.133237 -18.143049 -1.254238 -17.968085 -34.653040 25.761394 -7.886494 -0.013821 -0.038125 0.000000 0.000000 0.000000 0.441616 23.637178 5.924834 -1.088327 7.412677 10.369023 7.340188 7.401397 -0.347057 0.000000 0.000000 0.000000 0.000000 0.000000 0.000000 0.687530 7.224080 -0.473164 -14.981682 -22.379378 3.474323 6.383154 -19.162912 -1.752119 0.000000 0.000000 0.000000 0.687530 7.224080 -0.473164 -0.958325 11.589829 16.054728 0.000000 0.000000 0.000000 -66.492124 6.731935 -32.420944 -50.068528 -20.341208 15.357197 0.000000 0.000000 0.000000 0.687530 7.224080 -0.473164 5.228965 9.723390 6.084438 0.000000 0.000000 0.000000 10.668931 -68.209452 51.667550 -0.500530 18.866890 38.212381 0.000000 0.000000 0.000000 
1.012654 31.504299 0.868805 0.000000 0.000000 0.000000 1.788617 30.571831 4.782449 -39.044469 -12.611046 -8.077992 28.905244 -0.998530 -6.170902 6.566416 8.981664 -0.951883 -1.830483 0.112118 -0.758869 0.000000 0.000000 0.000000 1.788617 30.571831 4.782449 33.266221 -25.607112 3.079609 3.502286 -16.133865 -3.841058 -15.462116 -31.229380 26.826497 -9.229682 -0.012011 0.080790 0.000000 0.000000 0.000000 1.788617 30.571831 4.782449 -3.007677 8.284925 9.439393 5.554688 8.658322 -1.589354 0.000000 0.000000 0.000000 0.000000 0.000000 0.000000 1.738245 8.299239 -1.912930 -18.260209 -26.743037 6.305346 8.037614 -21.371747 -1.064206 0.000000 0.000000 0.000000 1.738245 8.299239 -1.912930 -1.577748 14.389641 6.973775 0.000000 0.000000 0.000000 -69.478030 6.137836 -33.977995 -57.150563 -21.535482 12.111630 0.000000 0.000000 0.000000 1.738245 8.299239 -1.912930 4.894011 10.841108 6.313577 0.000000 0.000000 0.000000 4.878254 -64.300903 47.139107 1.435496 17.723781 37.243533 0.000000 0.000000 0.000000 
0.885865 31.131126 0.783398 0.000000 0.000000 0.000000 3.226110 35.753684 3.779493 -44.147034 -15.723744 -10.730494 28.777759 0.545675 -5.892797 9.786286 6.616147 -1.889283 -1.772685 0.107268 -0.743491 0.000000 0.000000 0.000000 3.226110 35.753684 3.779493 38.339846 -30.246400 8.308526 -2.960179 -14.528646 -5.743114 -13.752274 -28.784920 27.731750 -10.037131 -0.010528 0.152424 0.000000 0.000000 0.000000 3.226110 35.753684 3.779493 -4.161295 9.271321 6.937397 4.148993 9.738353 -2.313487 0.000000 0.000000 0.000000 0.000000 0.000000 0.000000 2.622312 9.143781 -2.876045 -20.421383 -29.514712 8.606551 9.851733 -22.310434 -0.601214 0.000000 0.000000 0.000000 2.622312 9.143781 -2.876045 -1.551595 16.133083 -1.361298 0.000000 0.000000 0.000000 -73.331329 7.070537 -36.866469 -56.368042 -25.384594 -0.231616 0.000000 0.000000 0.000000 2.622312 9.143781 -2.876045 4.563277 12.285515 5.226372 0.000000 0.000000 0.000000 6.941795 -52.767405 49.307631 2.904025 16.059764 35.334693 0.000000 0.000000 0.000000 
